<svg xmlns="http://www.w3.org/2000/svg" width="1440" height="1440" viewBox="0 0 1080 1080">
    <path fill="currentColor" d="M812.8 65.3c-2.9 2.4-12.5 9.7-21.3 16.3-17.4 13-42.2 33.3-52.5 43.1-6.5 6.2-6.5 6.2-4.5 8.2 3 2.9 28.8 16.1 31.6 16.1 1.4 0 2.9-.4 3.5-.9 1.7-1.7 34.9-20.8 45.8-26.5 6.4-3.3 11.4-5.2 11.9-4.7s-.2 3-1.7 5.9c-3.1 6.1-3.4 9.6-.8 8.9 10.6-3 29.1-5.7 38.3-5.7 8 0 8.9.2 12.9 3.1 6.1 4.4 19 17.9 26.1 27.2l5.9 7.8v10.8c0 19-2.5 29.4-14.6 61-4.1 10.6-7.3 19.8-7.1 20.4s3.2-2 6.7-5.6c5.7-6 9-8.2 9-5.9 0 .5-.9 5.1-2.1 10.3-3.3 15.1-5.9 30.3-5.9 34.1 0 4.4 2.2 3.4 9.6-4.5 11.4-12 31.6-42.3 43.7-65.6l6-11.6-.6-11.6c-1.1-19.4-6.6-47.4-11.6-59.2-4.5-10.4-16.7-24.5-40.3-46.6-12.4-11.6-11.1-11-47.8-20.2-11.3-2.8-23-5.9-26-7-3-1-6.2-1.9-7.1-1.9-1 0-4.1 1.9-7.1 4.3M246.5 65.1c-5.5 1.6-17.4 4.5-26.5 6.5s-17.7 4-19.2 4.6c-6.6 2.5-19.5 13.9-39.6 35.1-10.4 11.1-15 19-20 34.7-5.6 17.6-9.8 45.8-8.7 58.4 1.1 12 3 16.8 11.8 30 15.6 23 42.6 54.1 46.4 53.4 1-.2 2.2-2 2.9-4.3 2.4-7.8 1.8-10.6-5.5-25.7-11.7-24.2-22-54.3-19.4-56.9.6-.6 4.3.6 10.3 3.6 5.2 2.5 10 4.5 10.7 4.5 2 0 1.5-3.7-1.1-8.3-8.6-15.2-12.9-38-9.1-48.8 3.9-10.8 12.1-14.1 41.8-16.4 5.1-.5 7.7-1.1 7.7-1.9 0-.7-1.2-4.5-2.6-8.6-3.3-9.4-2.7-10 6.9-7.6 31.6 8 35.5 9.7 63.7 28.6 11.6 7.7 21.8 14.4 22.6 14.7 2.6 1 32.5-26.4 32.4-29.8-.1-1.3-7.5-7.4-39.9-32.7-21.7-17.1-50.6-36.3-54.1-36.1-.8.1-6 1.4-11.5 3M442 129.7c-7.7 1.3-42.7 8.6-49.5 10.4-14 3.5-18.9 6.4-33.6 20.1-19.2 17.9-78.9 78.7-78.9 80.4 0 1.8 11.8 1.9 23.5.2 4.5-.6 9-.8 10-.5 1.7.7 1.7.8-.1 2.8-1 1.1-6.3 4.7-11.8 8-25.9 15.7-55.8 40.1-52.8 43.1.7.7 6.7.6 17.9-.1 35.9-2.6 88.7-3.1 310.6-3 126.4.1 230 0 230.2-.3.5-.4-17.8-22.7-33.6-40.9-12-13.9-19.9-23.9-19.9-25.2 0-1.8 5-.2 18.7 5.9 19.3 8.7 32.1 13.6 34.2 13.1 1.1-.2-9.3-11.3-32.9-35.1-63.2-63.8-66-65.8-101-73-9.6-2-20.2-4.2-23.5-4.9-3.7-.7-13.3-1.2-25-1.1-19.9.1-32 1.7-61.5 8.1-23.2 5-23 5-34.8 2.5-5.9-1.3-17.9-3.6-26.7-5.3-8.8-1.6-19.5-3.6-23.8-4.4-7.2-1.4-29.3-1.9-35.7-.8m154 69.1c0 2.9-33.7 51.2-38.5 55.2-3.6 3-3-2.1 2.2-18.5C565.3 218 572 209 585 201.4c8.1-4.8 11-5.4 11-2.6m-93.6 15.3c15.3 14.8 18.1 19.2 21.5 33.9 2.7 11.4 3 16.5 1.2 16.5-1.4 0-16.2-22.4-30.1-45.7-6.8-11.3-9.4-17.8-7.2-17.8.6 0 7.2 5.9 14.6 13.1M270 318c-12.4.4-23.9 1-25.7 1.4-5.2 1.2-5.2.2-.1 27.1 6 32 15.6 73.8 21.1 92 7.2 23.6 11 30.4 21.4 39 8 6.6 13.8 9.4 21.5 10.5 10.4 1.5 51.5 3 80.5 3h27.2l2.9-3.6c4.2-5.1 8.6-13.4 7.6-14.4-.5-.4-25.6-1.2-55.9-1.7l-55-.8-6-3c-7.4-3.7-19.4-15.3-22.8-22.1-4-7.9-9.6-29.5-16.8-64.4-8.1-39.3-7.8-36.6-4.8-39.6 1.4-1.4 4.3-2.9 6.5-3.4 5.5-1.3 543.5-1.3 546.8 0 2.1.8 2.6 1.6 2.6 4.4 0 5.5-14.3 65-21.4 89-6.4 21.5-12.9 30.6-25.9 36.6l-6.2 2.8-51 .5c-28 .3-51.8.8-52.7 1.2-2.5 1-2.3 2.6 1.1 9.4 4.5 8.9 2.8 8.6 50.6 8.5 50.8-.2 58.1-.8 69-6.4 14-7 21.3-14.9 27.3-29.5 3.5-8.5 13.3-42.7 20-70 11.9-48 14.6-61.5 12.5-63.6-.7-.7-6-1.6-12-2.1-12.7-1.2-528-1.9-562.3-.8"/>
    <path fill="currentColor" d="M209.8 341.7c-4.2 4.4-30.8 44.7-37.5 56.8-17.3 31.3-40.3 82.1-40.3 89.1 0 3.6 4.1.9 34.9-23.6 10-8 18.6-14.7 19.1-14.8.6-.2 1 .4 1 1.4 0 1.7-14.5 28.3-36.8 67.4-5.8 10.2-12.2 22.1-14.3 26.5-8.9 19.1-26 69.2-34.4 101-5.9 22.5-8.1 38.2-5.2 37.3.6-.3 6.6-8.3 13.2-17.9 6.6-9.7 14.2-20.5 16.9-24 22.5-29.7 51.9-64.7 54.5-64.8 1.9-.1 1.4 1.8-6.2 27.9-6.4 22.2-10.5 39.7-12.8 55.7-1 6.4-1 9.5-.1 13.4 2.2 9.6 12.4 31.3 23 48.9 5.2 8.7 14.2 21 15.4 21 1.1 0 1.1-.8.8-24.1-.2-14.6.1-20.8.9-21.3 1.4-.9 4.7 6.1 20.7 43.9 17.9 42.4 36.9 76.7 55.9 100.7 7.7 9.9 7.8 9.3 2.9-21.7-3-19.5-4.1-32.5-2.6-32.5.5 0 3.8 4.2 7.3 9.2 10.9 16.1 25.3 34.9 37.2 48.3 14.1 16 70.1 71.5 93.6 92.8 26 23.7 72.3 61.7 94.3 77.4 6.6 4.8 6.4 4.1-4.7-20.2-14.2-30.8-33.2-66.2-54.2-101-9.3-15.3-33.7-52.2-37.7-57-2.3-2.7-2.5-2.8-2.6-.9 0 1.1 4 13.1 8.9 26.5s10.1 28.1 11.6 32.7c4.8 14.5 3.3 13.7-21.8-11.8-23.9-24.2-26.8-27.5-50.1-56.5-47.5-59.3-84.9-113.5-115.7-168l-7.4-13-.3-23.9c-.2-14 .1-24.3.6-24.8 1-1 1.2-.8 12 14.2 3.4 4.7 10.8 14.9 16.4 22.7 19.2 26.4 55.3 72.1 60.3 76.3 1 .8 1.9 1 2.5.4 1.4-1.4 3-13.8 3-23.9 0-15 5.1-41.1 14-72.5 11-38.7 11.2-40 8.5-40-2.2 0-6.3 6.2-19.3 29.2-6.4 11.4-12.1 20.6-12.7 20.4-1.6-.5-1.1-22.1.9-33.6 2.7-16.4 8-34.9 15-53.4 1.4-3.7 2.6-7.2 2.6-7.7 0-2.8-8.9 1.9-17.8 9.4-6.1 5.1-7.8 5.4-11.5 2.1-10.7-9.6-47.6-46.9-51.4-51.9-5.4-7.1-7.9-12.6-13.9-30-8.2-23.6-16.3-53.3-23.5-85-4.6-20.6-8.4-34.9-9.4-35.2-.6-.2-2.3.9-3.7 2.4M474.1 363.9c-5 1.4-21.8 27.8-36.6 57.6-10.1 20.3-10.7 22-7.2 23.6 3.9 1.8 7.5-.7 13.9-9.6 12.1-16.8 38.8-64.6 38.8-69.4 0-2.9-3.4-3.8-8.9-2.2M777.1 366.6c-1.7 2.1-7.2 17.7-13.6 38.4-2.8 9.1-8.5 32.3-8.5 34.7 0 5.4 8.9 5.1 12.6-.4 4.3-6.4 18.4-60.6 18.4-70.8 0-5.1-5.4-6.3-8.9-1.9"/>
    <path fill="currentColor" d="M510.9 375.2c-1.7 2.4-15.1 28.6-29.9 58.3-14.7 29.7-29 57.5-31.8 61.7s-10.6 13.4-17.3 20.4c-21.4 22.4-27.5 31.2-34.8 50.6-6.5 17.3-6.6 18.2-6.6 86.8.1 73.3 1 86.1 6.7 94.3 1.1 1.5 8.8 8.3 17.2 15 8.3 6.7 24.6 20.3 36.1 30.2 28.4 24.5 38.7 32.6 40.5 32.3 1.8-.4 1.8-2.5.1-16.6-.9-7.2-1-10.7-.3-11.4s5.2 1.6 14.4 7.5c14.2 9.1 34.6 20.1 39 21.1 3.1.7 11.1-3.3 31-15.5 16.4-10.1 28.8-19.1 40.9-29.5 14.1-12.3 28.9-27.2 28.9-29.3 0-1-1.7-3.4-3.8-5.3-7.9-7.1-34-24.3-53.2-35l-10.5-5.8H503l-16.3 10.1c-8.9 5.5-21.4 13.4-27.7 17.5-13.7 9-22.4 13.4-26.5 13.4-6.3-.1-16.5-7.2-16.5-11.5 0-2.9 6.5-8.6 18.8-16.8 26.7-17.6 54.5-33.4 74.2-42.2 16.1-7.1 15-4.2 15-38.9 0-21.4-.3-29.5-1.2-30.4-3.4-3.4-11.5-.5-31 11-8.1 4.8-9.5 4.7-18.4-1.8-8.9-6.3-26.4-24.2-29.7-30.3-2.7-4.9-2.8-5.8-3-19.4-.1-16.8.4-18.1 11-30.5 13.4-15.7 25.3-25.7 35.8-30.2 11.3-4.8 18.5-5.5 60-5.5 38 0 39.1.1 44.9 2.3 8.8 3.3 14.5 7.4 23.3 16.6 8.1 8.3 23.1 26.6 26.5 32.1 2.2 3.7 2.3 9 .3 21.3-2.5 15.4-6.2 22.7-16.8 33.3-6 6-17.3 14-23.3 16.5-4.9 2-7 1.1-20.2-8.8-10.8-8.1-14.5-9.4-17.5-6.3-1 1-1.7 4.9-2.2 12.2-1 13.5.2 49.2 1.6 50.9.6.7 4.3 2.5 8.2 4 17.9 6.7 60.8 29.9 88.7 48 25.4 16.4 26 16.8 27.1 15.7 3.5-3.5 6.3-55.4 5.5-103.8-.3-21.5-1-41.2-1.6-43.9-1.3-6.5-11.2-31.2-16.1-40.4-2.1-4-7.6-11.7-12.2-17-19.7-22.9-25.1-32-63.2-106.7-20.9-40.9-25.6-49.8-27.8-52.3-2-2.2-2.3-2.2-30.4-2.2H514zM582 740.7c10 3.1 14 5 14 6.8 0 1.9-2.5 2.9-16.5 6.5-27.3 7.1-43.7 7.7-62.5 2.1-12.7-3.7-18-6-18-7.7 0-1.8 2.1-2.8 11.5-5.4 13.9-3.9 23.5-4.9 45-4.6 16.6.3 21.1.7 26.5 2.3M885 385.3c0 1.3 3.4 11.3 7.6 22.3 14.8 39 34.6 92 37 99.1 3.7 11 3.1 12.3-3.5 8.2-5-3-20.9-15-33.5-25.1-6-4.8-11.3-8.8-11.8-8.8-4 0 4.3 23.1 23.2 64 18.5 40.1 26.6 61.2 32.5 84.8 3.5 14.1 4.1 18.2 2.4 18.2-.8 0-6.8-4.8-13.4-10.6-12-10.6-39.1-32.8-43.9-35.9-1.4-.9-3-1.4-3.5-1.1-1.3.8-.8 3.8 5 30.1 8.3 38.5 9.1 43.6 9.2 59.5.1 13.8-.6 21-3.9 43.1-2.7 18.5-1.8 20.4 6.1 11.7 10.4-11.6 18.1-32.8 24.2-66.8.6-2.8 1.4-4.6 2.4-4.8.9-.1 10.8 6.6 22 15.1 25.8 19.4 33.3 24.7 34.9 24.7 1.9 0 .6-17.1-2.4-31-6.6-30.2-23.2-93-27.8-105-2.3-6-6.7-24.5-6-25.2.5-.5 8.9 3.1 18.8 7.8 19.1 9.2 25.4 11.1 25.4 7.7 0-2.3-6.7-19.2-13.9-35-14.7-32.5-54.2-107.2-65.1-123.3-5.5-8.3-19-24.8-20.6-25.4-1-.4-1.4.2-1.4 1.7"/>
    <path fill="currentColor" d="M505.3 527c-7 1-12.9 4.7-19.9 12.4-5.9 6.4-14.8 20-14.2 21.7.2.5 3.7-1.1 7.8-3.7 9.1-5.6 16.4-9 23.9-11 9-2.4 35-3.5 54.9-2.4s28.8 2.9 41.3 8.5c11.1 5 12.1 4.5 6.9-3.3s-12.1-13.4-22-18c-6.9-3.2-8.6-3.6-20.5-4.3-16.1-1-51.2-.9-58.2.1M800.5 535.2c-8.2 6.4-29.2 39.8-38 60.2-5.7 13.4-7.5 19.4-7.5 25.7 0 4.1.1 4.2 1.9 2.5 4.1-3.8 18.3-24.8 24.4-36.3 12.5-23.4 25.3-54.3 22.4-54.3-.2 0-1.7 1-3.2 2.2M838.5 680.2c-.4 1.4-1.7 5.8-11.1 37.3-9.6 32.4-16.6 52.7-33.5 97.8-10.1 26.9-11.9 32.7-10.3 32.7s32-25.7 44.2-37.4c10.2-9.8 11.9-12.5 13.7-22 4.5-23.3 4.4-93.4-.1-107.9-.6-2-2.3-2.3-2.9-.5M755.3 792.2c-1.1 1.3-8.3 12.6-15.8 25.2-7.6 12.7-16.7 27.5-20.2 33-8.8 13.9-36.3 70-36.3 74 0 3.1 18.1-9.8 30.8-21.9 6.3-5.9 8.1-8.5 12.2-17 8.2-17.1 19.7-49.6 29-82 1.7-6.1 3.3-11.6 3.5-12.3.7-1.9-1-1.4-3.2 1M657.2 889.7c-3.2 4.2-18.9 26.9-36.6 52.8-19.1 28.1-33.9 53.5-32.2 55.2.6.6 16.9-11.3 33.2-24.3l9.2-7.3 5.8-14.8c3.1-8.1 9.3-23.8 13.7-34.8C660 892.2 662.2 886 661 886c-.4 0-2.1 1.7-3.8 3.7"/>
</svg>